<svg width="127" height="32" viewBox="0 0 127 32" fill="none" xmlns="http://www.w3.org/2000/svg">
<path d="M39.6152 17.2243C39.6152 11.5159 43.7345 11.0639 46.1264 11.0639C48.0697 11.0639 49.3819 11.5159 49.3819 11.5159V13.6921C49.3819 13.6921 48.3687 13.3238 46.4253 13.3238C44.4986 13.3238 42.8376 14.1106 42.8376 17.2243C42.8376 20.3213 44.3989 21.2922 46.5582 21.2922C48.7175 21.2922 49.3819 20.8235 49.3819 20.8235V22.8658C49.3819 22.8658 48.4019 23.4852 46.1097 23.4852C42.522 23.5019 39.6152 22.2464 39.6152 17.2243Z" fill="#102D47"/>
<path d="M57.172 11.0806C52.9863 11.0806 50.9765 13.8595 50.9765 17.2913C50.9765 20.723 52.6209 23.5019 57.172 23.5019C61.7231 23.5019 63.3675 20.723 63.3675 17.2913C63.3675 13.8595 61.3577 11.0806 57.172 11.0806ZM57.172 21.3089C54.9629 21.3089 54.0493 19.501 54.0493 17.2913C54.0493 15.0648 55.0625 13.2736 57.172 13.2736C59.2815 13.2736 60.2947 15.0816 60.2947 17.2913C60.2947 19.5177 59.3811 21.3089 57.172 21.3089Z" fill="#102D47"/>
<path d="M95.7902 11.4657V13.1732C95.7902 13.1732 96.3882 12.9555 97.0028 13.0058C97.5509 13.0392 97.7835 13.4243 97.7835 14.0604C97.7835 14.6965 97.7835 23.1504 97.7835 23.1504H100.773V17.308C100.773 15.2824 101.836 13.441 104.029 13.441C105.673 13.441 105.989 14.4287 105.989 15.3327C105.989 15.3327 105.989 19.2499 105.989 20.6058C105.989 22.2296 106.736 23.5186 108.945 23.5186C110.673 23.5186 111.321 23.1001 111.321 23.1001V21.5098C111.321 21.5098 110.839 21.6437 110.258 21.6437C109.676 21.6437 109.045 21.1917 109.045 20.2376C109.045 19.2834 109.045 16.1529 109.045 14.9309C109.045 12.7881 108.314 11.0806 105.607 11.0806C102.899 11.0806 101.67 12.5036 100.84 13.6754C100.84 12.604 100.275 11.0806 98.1821 11.0806C96.7038 11.0806 95.7902 11.4657 95.7902 11.4657Z" fill="#102D47"/>
<path d="M127 23.1169V21.4094C127 21.4094 126.402 21.627 125.788 21.5768C125.24 21.5433 125.007 21.1583 125.007 20.5221C125.007 19.886 125.007 11.4322 125.007 11.4322H122.017V17.1741C122.017 19.1997 120.871 21.1415 118.961 21.1415C117.317 21.1415 116.785 20.1539 116.785 19.2499C116.785 19.2499 116.785 15.3327 116.785 13.9767C116.785 12.3529 116.038 11.0639 113.829 11.0639C112.101 11.0639 111.453 11.4824 111.453 11.4824V13.0895C111.453 13.0895 111.935 12.9388 112.517 12.9388C113.247 12.9388 113.729 13.3908 113.729 14.345C113.729 15.2992 113.729 18.4296 113.729 19.6516C113.729 21.7944 114.659 23.5019 117.367 23.5019C119.875 23.5019 120.988 22.5477 121.918 21.0076C121.918 22.079 122.483 23.5019 124.575 23.5019C126.087 23.5019 127 23.1169 127 23.1169Z" fill="#102D47"/>
<path d="M64.1316 11.4657V13.1732C64.1316 13.1732 64.7296 12.9555 65.3441 13.0058C65.8923 13.0392 66.1248 13.4243 66.1248 14.0604C66.1248 14.6965 66.1248 23.1504 66.1248 23.1504H69.1146V17.308C69.1146 15.2824 70.1776 13.441 72.3702 13.441C74.0145 13.441 74.3301 14.4287 74.3301 15.3327C74.3301 15.3327 74.3301 19.2499 74.3301 20.6058C74.3301 22.2296 75.0776 23.5186 77.2867 23.5186C79.0141 23.5186 79.6619 23.1001 79.6619 23.1001V21.5098C79.6619 21.5098 79.1803 21.6437 78.5989 21.6437C78.0176 21.6437 77.3864 21.1917 77.3864 20.2376C77.3864 19.2834 77.3864 16.1529 77.3864 14.9309C77.3864 12.7881 76.6555 11.0806 73.9481 11.0806C71.2407 11.0806 70.0115 12.5036 69.181 13.6754C69.181 12.604 68.6163 11.0806 66.5234 11.0806C65.0618 11.0806 64.1316 11.4657 64.1316 11.4657Z" fill="#102D47"/>
<path d="M86.3392 21.5935C85.492 21.5935 84.7114 21.2754 84.7114 20.1706C84.7114 19.4675 84.7114 14.7133 84.7114 13.1732H87.6347V11.382H84.7114V8.18457H83.2497L81.788 11.382H80.0772V13.1732H81.705C81.705 14.1776 81.705 18.9653 81.705 20.1371C81.705 21.4596 81.8212 23.5019 85.1931 23.5019C87.6181 23.5019 88.0832 23.0332 88.0832 23.0332V21.3591C88.0998 21.3759 87.1863 21.5935 86.3392 21.5935Z" fill="#102D47"/>
<path d="M90.1595 11.382C90.1595 11.382 90.1595 18.8146 90.1595 20.1371C90.1595 21.4596 90.2259 23.5019 93.1991 23.5019C95.0262 23.5019 95.4414 23.0332 95.4414 23.0332L95.4248 21.4763C95.4248 21.4763 94.9597 21.5768 94.1126 21.5768C93.5479 21.5768 93.1326 21.0913 93.1326 20.338C93.1326 19.501 93.1326 11.3652 93.1326 11.3652H90.1595V11.382Z" fill="#102D47"/>
<path d="M25.6242 20.2099C27.1517 19.3006 28.2553 17.9602 28.2553 16.0473C28.2553 14.1344 27.394 12.794 25.6242 12.0261L0 0.831543L22.6096 21.9814L25.6242 20.2099Z" fill="#00BCF1"/>
<path d="M11.7624 18.2499L0 31.1688L22.2799 22.2239L11.7624 18.2499Z" fill="#00BCF1"/>
</svg>
