<svg xmlns="http://www.w3.org/2000/svg" viewBox="0 0 24 24">
  <path d="M22 12.699219L24 12L22 11.300781C19.5 10.5 18.398438 7.601563 19.5 5.300781L20.398438 3.5L18.601563 4.398438C16.300781 5.601563 13.398438 4.398438 12.601563 1.898438L12 0L11.300781 2C10.5 4.5 7.601563 5.601563 5.300781 4.5L3.5 3.5L4.398438 5.300781C5.601563 7.601563 4.398438 10.5 1.898438 11.300781L0 12L2 12.699219C4.5 13.5 5.601563 16.398438 4.5 18.699219L3.601563 20.5L5.398438 19.601563C7.699219 18.398438 10.601563 19.601563 11.398438 22.101563L12.101563 24.101563L12.800781 22.101563C13.601563 19.601563 16.5 18.5 18.800781 19.601563L20.601563 20.5L19.699219 18.699219C18.398438 16.300781 19.601563 13.5 22 12.699219 Z M 12 18C8.699219 18 6 15.300781 6 12C6 8.699219 8.699219 6 12 6C15.300781 6 18 8.699219 18 12C18 15.300781 15.300781 18 12 18Z" fill="#F7F7F7" />
</svg>