<svg xmlns="http://www.w3.org/2000/svg" viewBox="0 0 30 30">
  <path d="M4 5C2.895 5 2 5.895 2 7L2 23C2 24.105 2.895 25 4 25L8 25C9.105 25 10 24.105 10 23L10 7C10 5.895 9.105 5 8 5L4 5 z M 12 5L12 7L26 7L26 17L12 17L12 21L26 21C27.105 21 28 20.105 28 19L28 7C28 5.895 27.105 5 26 5L12 5 z M 17 18C17.552 18 18 18.448 18 19C18 19.552 17.552 20 17 20C16.448 20 16 19.552 16 19C16 18.448 16.448 18 17 18 z M 6 19C6.552 19 7 19.448 7 20C7 20.552 6.552 21 6 21C5.448 21 5 20.552 5 20C5 19.448 5.448 19 6 19 z M 12 23L12 25L22 25 A 1 1 0 0 0 23 24 A 1 1 0 0 0 22 23L12 23 z" fill="#F7F7F7" />
</svg>