<svg xmlns="http://www.w3.org/2000/svg" viewBox="0 0 30 30">
  <path d="M10 3C8.3550302 3 7 4.3550302 7 6L7 11L9 11L9 6C9 5.4349698 9.4349698 5 10 5L20 5C20.56503 5 21 5.4349698 21 6L21 11L23 11L23 6C23 4.3550302 21.64497 3 20 3L10 3 z M 15 6 A 1 1 0 0 0 14 7 A 1 1 0 0 0 15 8 A 1 1 0 0 0 16 7 A 1 1 0 0 0 15 6 z M 6 13C4.895 13 4 13.895 4 15L3 15 A 1.0001 1.0001 0 1 0 3 17L4 17L4 24C4 25.657 5.343 27 7 27L23 27C24.657 27 26 25.657 26 24L26 17L27 17 A 1.0001 1.0001 0 1 0 27 15L26 15C26 13.895 25.105 13 24 13L17 13C16.448 13 16 13.448 16 14C16 14.552 16.448 15 17 15L19 15C19.552 15 20 15.448 20 16C20 16.552 19.552 17 19 17L11 17C10.448 17 10 16.552 10 16C10 15.448 10.448 15 11 15L13 15C13.552 15 14 14.552 14 14C14 13.448 13.552 13 13 13L6 13 z M 9 19C9.552 19 10 19.448 10 20C10 20.552 9.552 21 9 21C8.448 21 8 20.552 8 20C8 19.448 8.448 19 9 19 z M 13 19C13.552 19 14 19.448 14 20C14 20.552 13.552 21 13 21C12.448 21 12 20.552 12 20C12 19.448 12.448 19 13 19 z M 17 19C17.552 19 18 19.448 18 20C18 20.552 17.552 21 17 21C16.448 21 16 20.552 16 20C16 19.448 16.448 19 17 19 z M 21 19C21.552 19 22 19.448 22 20C22 20.552 21.552 21 21 21C20.448 21 20 20.552 20 20C20 19.448 20.448 19 21 19 z M 11 22C11.552 22 12 22.448 12 23C12 23.552 11.552 24 11 24C10.448 24 10 23.552 10 23C10 22.448 10.448 22 11 22 z M 15 22C15.552 22 16 22.448 16 23C16 23.552 15.552 24 15 24C14.448 24 14 23.552 14 23C14 22.448 14.448 22 15 22 z M 19 22C19.552 22 20 22.448 20 23C20 23.552 19.552 24 19 24C18.448 24 18 23.552 18 23C18 22.448 18.448 22 19 22 z" fill="#F7F7F7" />
</svg>