<svg xmlns="http://www.w3.org/2000/svg" viewBox="0 0 30 30">
  <path d="M7 4 A 3 3 0 0 0 4 7 A 3 3 0 0 0 7 10 A 3 3 0 0 0 10 7 A 3 3 0 0 0 7 4 z M 12 5L12 7L24 7L24 18L12 18L12 18.832031 A 1.0001 1.0001 0 0 0 12 19.158203L12 20L25 20L26 20 A 1.0001 1.0001 0 1 0 26 18L26 6 A 1.0001 1.0001 0 0 0 25 5L12 5 z M 6 12C4.895 12 4 12.895 4 14L4 20L10 20L10 15C10 14.448 10.448 14 11 14L12 14L16 14 A 1.0001 1.0001 0 1 0 16 12L12 12L9 12L6 12 z M 6 22 A 2 2 0 0 0 4 24 A 2 2 0 0 0 6 26 A 2 2 0 0 0 8 24 A 2 2 0 0 0 6 22 z M 12 22 A 2 2 0 0 0 10 24 A 2 2 0 0 0 12 26 A 2 2 0 0 0 14 24 A 2 2 0 0 0 12 22 z M 18 22 A 2 2 0 0 0 16 24 A 2 2 0 0 0 18 26 A 2 2 0 0 0 20 24 A 2 2 0 0 0 18 22 z M 24 22 A 2 2 0 0 0 22 24 A 2 2 0 0 0 24 26 A 2 2 0 0 0 26 24 A 2 2 0 0 0 24 22 z" fill="#F7F7F7" />
</svg>