<svg xmlns="http://www.w3.org/2000/svg" viewBox="0 0 26 26">
  <path d="M13 1C10.496094 1 8.195313 1.769531 6.34375 2.96875C5.960938 3.214844 5.792969 3.691406 5.9375 4.125C5.996094 4.296875 6 4.300781 6 4.5C6 5.375 5.375 6 4.5 6C4.300781 6 4.296875 5.996094 4.125 5.9375C3.691406 5.792969 3.214844 5.960938 2.96875 6.34375C1.769531 8.195313 1 10.496094 1 13C1 19.636719 6.363281 25 13 25C18.882813 25 23.796875 20.761719 24.78125 15.1875C24.847656 14.855469 24.738281 14.515625 24.5 14.28125C24.1875 13.96875 24 13.550781 24 13C24 12.449219 24.1875 12.03125 24.5 11.71875C24.738281 11.484375 24.847656 11.144531 24.78125 10.8125C23.691406 5.261719 18.882813 1 13 1 Z M 13 3C13.300781 3 13.582031 3.003906 13.875 3.03125C14.84375 3.988281 15.660156 5.078125 16.3125 6.3125C16.613281 6.113281 17.101563 6 17.5 6C18.898438 6 20 7.101563 20 8.5C20 9.800781 19.113281 10.800781 17.8125 11C17.914063 11.699219 18 12.300781 18 13C18 16.9375 16.390625 20.417969 13.84375 22.96875C13.5625 22.992188 13.289063 23 13 23C7.433594 23 3 18.566406 3 13C3 11.121094 3.546875 9.421875 4.375 7.96875C4.40625 7.96875 4.476563 8 4.5 8C6.421875 8 8 6.421875 8 4.5C8 4.476563 7.96875 4.40625 7.96875 4.375C9.421875 3.546875 11.121094 3 13 3 Z M 11.625 7.25C10.480469 7.21875 9.355469 7.957031 9.09375 9.09375C8.792969 10.394531 9.605469 11.792969 10.90625 12.09375C11.207031 12.195313 11.605469 12.195313 11.90625 12.09375C11.105469 11.492188 10.699219 10.492188 11 9.59375C11.199219 8.59375 12 7.914063 13 7.8125C12.699219 7.613281 12.492188 7.414063 12.09375 7.3125C11.929688 7.273438 11.789063 7.253906 11.625 7.25 Z M 7.34375 14C7.207031 14.011719 7.054688 14.042969 6.90625 14.09375C6.105469 14.394531 5.699219 15.300781 6 16C6.300781 16.800781 7.207031 17.207031 7.90625 16.90625C8.207031 16.804688 8.398438 16.605469 8.5 16.40625C8.101563 16.40625 7.699219 16 7.5 15.5C7.300781 15 7.386719 14.398438 7.6875 14C7.585938 14 7.480469 13.988281 7.34375 14 Z M 19.8125 16L20 16C20.800781 16.398438 21.199219 17.300781 21 18C20.699219 18.800781 19.894531 19.207031 19.09375 18.90625C18.992188 18.90625 19.007813 18.914063 18.90625 18.8125C19.40625 18.613281 19.800781 18.195313 20 17.59375C20.199219 16.992188 20.113281 16.5 19.8125 16 Z M 11.8125 16.8125C11.511719 16.8125 11.113281 16.894531 10.8125 17.09375C9.914063 17.695313 9.613281 19.007813 10.3125 19.90625C10.914063 20.804688 12.195313 21.105469 13.09375 20.40625C13.394531 20.207031 13.613281 19.894531 13.8125 19.59375C13.113281 19.695313 12.304688 19.414063 11.90625 18.8125C11.507813 18.210938 11.511719 17.414063 11.8125 16.8125Z" fill="#333333" />
</svg>