<svg xmlns="http://www.w3.org/2000/svg" viewBox="0 0 50 50">
  <path d="M25 3C21.699219 3 19 5.699219 19 9C19 12.300781 21.699219 15 25 15C28.300781 15 31 12.300781 31 9C31 5.699219 28.300781 3 25 3 Z M 25 5C27.222656 5 29 6.777344 29 9C29 11.222656 27.222656 13 25 13C22.777344 13 21 11.222656 21 9C21 6.777344 22.777344 5 25 5 Z M 25 19C21.699219 19 19 21.699219 19 25C19 28.300781 21.699219 31 25 31C28.300781 31 31 28.300781 31 25C31 21.699219 28.300781 19 25 19 Z M 25 21C27.222656 21 29 22.777344 29 25C29 27.222656 27.222656 29 25 29C22.777344 29 21 27.222656 21 25C21 22.777344 22.777344 21 25 21 Z M 25 35C21.699219 35 19 37.699219 19 41C19 44.300781 21.699219 47 25 47C28.300781 47 31 44.300781 31 41C31 37.699219 28.300781 35 25 35 Z M 25 37C27.222656 37 29 38.777344 29 41C29 43.222656 27.222656 45 25 45C22.777344 45 21 43.222656 21 41C21 38.777344 22.777344 37 25 37Z" fill="#333333" />
</svg>